<svg width="144" height="80" viewBox="0 0 144 80" fill="none" xmlns="http://www.w3.org/2000/svg">
<g filter="url(#filter0_d_115_288)">
<rect x="10" y="6" width="123.188" height="60" rx="30" fill="#181E29" shape-rendering="crispEdges"/>
<rect x="10.5" y="6.5" width="122.188" height="59" rx="29.5" stroke="#353C4A" shape-rendering="crispEdges"/>
<path d="M36.2884 42V30.3636H38.3963V40.233H43.5213V42H36.2884ZM49.0668 42.1705C48.2145 42.1705 47.4759 41.983 46.8509 41.608C46.2259 41.233 45.741 40.7083 45.3963 40.0341C45.0554 39.3598 44.8849 38.572 44.8849 37.6705C44.8849 36.7689 45.0554 35.9792 45.3963 35.3011C45.741 34.6231 46.2259 34.0966 46.8509 33.7216C47.4759 33.3466 48.2145 33.1591 49.0668 33.1591C49.919 33.1591 50.6577 33.3466 51.2827 33.7216C51.9077 34.0966 52.3906 34.6231 52.7315 35.3011C53.0762 35.9792 53.2486 36.7689 53.2486 37.6705C53.2486 38.572 53.0762 39.3598 52.7315 40.0341C52.3906 40.7083 51.9077 41.233 51.2827 41.608C50.6577 41.983 49.919 42.1705 49.0668 42.1705ZM49.0781 40.5227C49.5402 40.5227 49.9266 40.3958 50.2372 40.142C50.5478 39.8845 50.7789 39.5398 50.9304 39.108C51.0857 38.6761 51.1634 38.1951 51.1634 37.6648C51.1634 37.1307 51.0857 36.6477 50.9304 36.2159C50.7789 35.7803 50.5478 35.4337 50.2372 35.1761C49.9266 34.9186 49.5402 34.7898 49.0781 34.7898C48.6046 34.7898 48.2107 34.9186 47.8963 35.1761C47.5857 35.4337 47.3527 35.7803 47.1974 36.2159C47.0459 36.6477 46.9702 37.1307 46.9702 37.6648C46.9702 38.1951 47.0459 38.6761 47.1974 39.108C47.3527 39.5398 47.5857 39.8845 47.8963 40.142C48.2107 40.3958 48.6046 40.5227 49.0781 40.5227ZM58.7898 45.4545C58.0511 45.4545 57.4167 45.3542 56.8864 45.1534C56.3561 44.9564 55.9299 44.6913 55.608 44.358C55.286 44.0246 55.0625 43.6553 54.9375 43.25L56.7898 42.8011C56.8731 42.9716 56.9943 43.1402 57.1534 43.3068C57.3125 43.4773 57.5265 43.6174 57.7955 43.7273C58.0682 43.8409 58.411 43.8977 58.8239 43.8977C59.4072 43.8977 59.8902 43.7557 60.2727 43.4716C60.6553 43.1913 60.8466 42.7292 60.8466 42.0852V40.4318H60.7443C60.6383 40.6439 60.483 40.8617 60.2784 41.0852C60.0777 41.3087 59.8106 41.4962 59.4773 41.6477C59.1477 41.7992 58.733 41.875 58.233 41.875C57.5625 41.875 56.9545 41.7178 56.4091 41.4034C55.8674 41.0852 55.4356 40.6117 55.1136 39.983C54.7955 39.3504 54.6364 38.5587 54.6364 37.608C54.6364 36.6496 54.7955 35.8409 55.1136 35.1818C55.4356 34.5189 55.8693 34.017 56.4148 33.6761C56.9602 33.3314 57.5682 33.1591 58.2386 33.1591C58.75 33.1591 59.1705 33.2462 59.5 33.4205C59.8333 33.5909 60.0985 33.7973 60.2955 34.0398C60.4924 34.2784 60.642 34.5038 60.7443 34.7159H60.858V33.2727H62.8864V42.142C62.8864 42.8883 62.7083 43.5057 62.3523 43.9943C61.9962 44.483 61.5095 44.8485 60.892 45.0909C60.2746 45.3333 59.5739 45.4545 58.7898 45.4545ZM58.8068 40.2614C59.2424 40.2614 59.6136 40.1553 59.9205 39.9432C60.2273 39.7311 60.4602 39.4261 60.6193 39.0284C60.7784 38.6307 60.858 38.1534 60.858 37.5966C60.858 37.0473 60.7784 36.5663 60.6193 36.1534C60.464 35.7405 60.233 35.4205 59.9261 35.1932C59.6231 34.9621 59.25 34.8466 58.8068 34.8466C58.3485 34.8466 57.9659 34.9659 57.6591 35.2045C57.3523 35.4432 57.1212 35.7708 56.9659 36.1875C56.8106 36.6004 56.733 37.0701 56.733 37.5966C56.733 38.1307 56.8106 38.5985 56.9659 39C57.125 39.3977 57.358 39.7083 57.6648 39.9318C57.9754 40.1515 58.3561 40.2614 58.8068 40.2614ZM64.9943 42V33.2727H67.0511V42H64.9943ZM66.0284 32.0341C65.7027 32.0341 65.4223 31.9261 65.1875 31.7102C64.9527 31.4905 64.8352 31.2273 64.8352 30.9205C64.8352 30.6098 64.9527 30.3466 65.1875 30.1307C65.4223 29.911 65.7027 29.8011 66.0284 29.8011C66.358 29.8011 66.6383 29.911 66.8693 30.1307C67.1042 30.3466 67.2216 30.6098 67.2216 30.9205C67.2216 31.2273 67.1042 31.4905 66.8693 31.7102C66.6383 31.9261 66.358 32.0341 66.0284 32.0341ZM71.223 36.8864V42H69.1662V33.2727H71.1321V34.7557H71.2344C71.4351 34.267 71.7552 33.8788 72.1946 33.5909C72.6378 33.303 73.1851 33.1591 73.8366 33.1591C74.4389 33.1591 74.9635 33.2879 75.4105 33.5455C75.8613 33.803 76.2098 34.1761 76.456 34.6648C76.706 35.1534 76.8291 35.7462 76.8253 36.4432V42H74.7685V36.7614C74.7685 36.178 74.617 35.7216 74.3139 35.392C74.0147 35.0625 73.5999 34.8977 73.0696 34.8977C72.7098 34.8977 72.3897 34.9773 72.1094 35.1364C71.8329 35.2917 71.6151 35.517 71.456 35.8125C71.3007 36.108 71.223 36.4659 71.223 36.8864Z" fill="white"/>
<path d="M101.555 36.9688C101.789 36.7344 101.789 36.3047 101.555 36.0703L96.5547 31.0703C96.3203 30.8359 95.8906 30.8359 95.6562 31.0703C95.4219 31.3047 95.4219 31.7344 95.6562 31.9688L99.6016 35.875H88.625C88.2734 35.875 88 36.1875 88 36.5C88 36.8516 88.2734 37.125 88.625 37.125H99.6016L95.6562 41.0703C95.4219 41.3047 95.4219 41.7344 95.6562 41.9688C95.8906 42.2031 96.3203 42.2031 96.5547 41.9688L101.555 36.9688ZM101.125 44C100.773 44 100.5 44.3125 100.5 44.625C100.5 44.9766 100.773 45.25 101.125 45.25H104.875C106.594 45.25 108 43.8828 108 42.125V30.875C108 29.1562 106.594 27.75 104.875 27.75H101.125C100.773 27.75 100.5 28.0625 100.5 28.375C100.5 28.7266 100.773 29 101.125 29H104.875C105.891 29 106.75 29.8594 106.75 30.875V42.125C106.75 43.1797 105.891 44 104.875 44H101.125Z" fill="#C9CED6"/>
</g>
<defs>
<filter id="filter0_d_115_288" x="0" y="0" width="143.188" height="80" filterUnits="userSpaceOnUse" color-interpolation-filters="sRGB">
<feFlood flood-opacity="0" result="BackgroundImageFix"/>
<feColorMatrix in="SourceAlpha" type="matrix" values="0 0 0 0 0 0 0 0 0 0 0 0 0 0 0 0 0 0 127 0" result="hardAlpha"/>
<feOffset dy="4"/>
<feGaussianBlur stdDeviation="5"/>
<feComposite in2="hardAlpha" operator="out"/>
<feColorMatrix type="matrix" values="0 0 0 0 0 0 0 0 0 0 0 0 0 0 0 0 0 0 0.1 0"/>
<feBlend mode="normal" in2="BackgroundImageFix" result="effect1_dropShadow_115_288"/>
<feBlend mode="normal" in="SourceGraphic" in2="effect1_dropShadow_115_288" result="shape"/>
</filter>
</defs>
</svg>
